/* XPM */
static char *_a2a10f6e21c4b17b5a099db582c6da5uwESV7Y2rKHcy7ca[] = {
/* columns rows colors chars-per-pixel */
"48 48 139 2 ",
"   c None",
".  c #5DAD2D",
"X  c #62AF32",
"o  c #65B036",
"O  c #67B139",
"+  c #6AB23C",
"@  c #6EB440",
"#  c #71B644",
"$  c #75B749",
"%  c #76BA4E",
"&  c #79B94E",
"*  c #7EBB54",
"=  c #81BC57",
"-  c #84BE5B",
";  c #88BE5F",
":  c #8ABF61",
">  c #85C05F",
",  c #87C161",
"<  c #8DC165",
"1  c #8DC66B",
"2  c #93C36C",
"3  c #96C672",
"4  c #97C977",
"5  c #9ECA7C",
"6  c #5489C2",
"7  c #5A8EC5",
"8  c #5C91C7",
"9  c #5E93C8",
"0  c #6091C6",
"q  c #6195C9",
"w  c #659ACC",
"e  c #6A9DCE",
"r  c #739FCD",
"t  c #6A9FD0",
"y  c #6DA2D2",
"u  c #72A6D4",
"i  c #7AA5D2",
"p  c #75A9D6",
"a  c #7CA9D4",
"s  c #79ADD9",
"d  c #7EB2DC",
"f  c #9FCD81",
"g  c #A5CE85",
"h  c #A4D189",
"j  c #ABD492",
"k  c #B2D597",
"l  c #B4D69A",
"z  c #B8D89E",
"x  c #BBDCA6",
"c  c #C2DEAD",
"v  c #C1E0AF",
"b  c #C4E0B2",
"n  c #CDE5BD",
"m  c #86ABD4",
"M  c #8AAFD6",
"N  c #82B5DE",
"B  c #8AB3DA",
"V  c #84B8DF",
"C  c #8EB9DE",
"Z  c #91B4D8",
"A  c #95BADD",
"S  c #98B8DA",
"D  c #A1BFDE",
"F  c #86BAE0",
"G  c #8CBBE1",
"H  c #96BFE1",
"J  c #95C0E2",
"K  c #99C5E5",
"L  c #A7C4E1",
"P  c #AAC4E1",
"I  c #A6C9E6",
"U  c #A9CBE7",
"Y  c #AACEE9",
"T  c #B5CCE4",
"R  c #B6D3EB",
"E  c #BDD5EA",
"W  c #D1E6C1",
"Q  c #D6E8C7",
"!  c #D6EAC9",
"~  c #D8EACB",
"^  c #DCEDD1",
"/  c #E0EFD6",
"(  c #E3EFD9",
")  c #E5F2DD",
"_  c #C0D4E9",
"`  c #C7DBED",
"'  c #CBDEEF",
"]  c #C1DCF0",
"[  c #D1E0EF",
"{  c #CFE3F2",
"}  c #D2E4F2",
"|  c #D9E6F3",
" . c #DCE9F5",
".. c #EBF4E4",
"X. c #EEF6E8",
"o. c #F1F7EC",
"O. c #F3F9EF",
"+. c #E4EDF6",
"@. c #E8EFF7",
"#. c #E3EFF8",
"$. c #EBF2F9",
"%. c #EAF3F9",
"&. c #E9F2F9",
"*. c #ECF2F8",
"=. c #ECF4FA",
"-. c #EEF4FA",
";. c #EFF6FB",
":. c #EDF2F8",
">. c #F4F9F0",
",. c #F6FAF3",
"<. c #F3F9F0",
"1. c #F9FCF7",
"2. c #F0F4F9",
"3. c #F0F5F9",
"4. c #F0F5FA",
"5. c #F1F6FB",
"6. c #F2F6FA",
"7. c #F7F9FB",
"8. c #F5F9FD",
"9. c #F7F9FC",
"0. c #F6F8FB",
"q. c #FAFCF8",
"w. c #FBFDF9",
"e. c #FBFDFA",
"r. c #FCFDFB",
"t. c #FCFEFB",
"y. c #F9FBFD",
"u. c #FAFBFD",
"i. c #FAFCFD",
"p. c #FAFCFE",
"a. c #FBFCFE",
"s. c #FBFDFE",
"d. c #FEFEFD",
"f. c #FCFDFE",
"g. c #FDFEFE",
"h. c #FEFFFE",
"j. c #FEFEFF",
"k. c white",
"l. c #FFFFFF",
/* pixels */
"        6 6 6 6 6 6 6 6 6 6 6 6 6 6 6 6 6 6 6 6 6 6 6 6 6 6 6 6 6 6 6 6 6 6 6 6 6 6 6 6         ",
"    6 6 7 m L T T T T T T T T T T T T T T T T T T T T T T T T T T T T T T T T T T P Z 0 6 6     ",
"  6 6 Z 3.k.k.k.k.k.k.k.k.k.k.k.k.k.k.k.k.k.k.k.k.k.k.k.k.k.k.k.k.k.k.k.k.k.k.k.k.k.k.7.S 6 6   ",
"  6 S k.k.k.k.k.k.k.k.k.k.k.k.k.k.k.k.k.k.k.k.k.k.k.k.k.k.k.k.k.k.k.k.k.k.k.k.k.k.k.k.k.k.Z 6   ",
"6 0 9.k.k.k.k.k.k.k.k.k.k.k.k.k.k.k.k.k.k.k.k.k.k.k.k.k.k.k.k.k.k.k.k.k.k.k.k.k.k.k.k.k.k.3.6 6 ",
"6 Z k.k.k.k.k.k.k.k.k.k.k.k.k.k.k.k.k.k.k.k.k.k.k.k.k.k.k.k.k.k.k.k.k.k.k.k.k.k.k.k.k.k.k.k.m 6 ",
"6 P k.k.k.k.k.k.k.k.k.k.k.k.k.k.k.k.k.k.,.) o.k.k.=.#.9.k.k.k.k.k.k.k.k.k.k.k.k.k.k.k.k.k.k.P 6 ",
"6 T k.k.k.k.k.k.k.k.k.k.k.k.k.k.k.X.b g 2 2 Q k.k.} F F K ] =.k.k.k.k.k.k.k.k.k.k.k.k.k.k.k.T 6 ",
"6 T k.k.k.k.k.k.k.k.k.k.k.k.k...k 2 2 2 2 2 Q k.k.} F F F F F Y $.k.k.k.k.k.k.k.k.k.k.k.k.k.T 6 ",
"6 T k.k.k.k.k.k.k.k.k.k.k.e.c 2 2 2 2 2 2 2 Q k.k.} V V V V V V F E a.k.k.k.k.k.k.k.k.k.k.k.T 6 ",
"6 T k.k.k.k.k.k.k.k.k.k.o.g 2 2 2 2 2 2 2 2 Q k.k.} N N N N N N N N K =.k.k.k.k.k.k.k.k.k.k.T 6 ",
"6 T k.k.k.k.k.k.k.k.k.X.5 2 2 2 2 2 2 2 2 2 Q k.k.{ N N N N N N N N N G $.k.k.k.k.k.k.k.k.k.T 6 ",
"6 T k.k.k.k.k.k.k.k.o.5 2 2 2 2 2 2 2 2 2 3 ^ k.k.| N d d d d d d d d d G =.k.k.k.k.k.k.k.k.T 6 ",
"6 T k.k.k.k.k.k.k.e.g 2 2 2 2 2 2 2 2 l / t.k.k.k.k.k. .I d d d d d d d d J a.k.k.k.k.k.k.k.T 6 ",
"6 T k.k.k.k.k.k.k.c 2 2 2 2 2 2 2 g ..k.k.k.k.k.k.k.k.k.k.#.H d d d d d d d R k.k.k.k.k.k.k.T 6 ",
"6 T k.k.k.k.k.k.X.2 2 2 2 2 2 2 z t.k.k.k.k.k.k.k.k.k.k.k.k.a.U s s s s s s d $.k.k.k.k.k.k.T 6 ",
"6 T k.k.k.k.k.k.k < < < < < < l k.k.k.k.k.k.k.k.k.k.k.k.k.k.k.k.I s s s s s s I k.k.k.k.k.k.T 6 ",
"6 T k.k.k.k.k.o.< < < < < < 5 e.k.k.k.k.k.k.k.k.k.k.k.k.k.k.k.k.a.C s s s s s s =.k.k.k.k.k.T 6 ",
"6 T k.k.k.k.k.b : : : : : : ( k.k.k.k.k.k.k.k.k.k.k.k.k.k.k.k.k.k. .p p p p p p E k.k.k.k.k.T 6 ",
"6 T k.k.k.k.k.g ; ; ; ; ; g k.k.k.k.k.k.k.k.k.k.k.k.k.k.k.k.k.k.k.k.H p p p p p A k.k.k.k.k.T 6 ",
"6 T k.k.k.k.1.; ; ; ; ; ; W k.k.k.k.k.k.k.k.k.k.k.k.k.k.k.k.k.k.k.k.' p p p p p p a.k.k.k.k.T 6 ",
"6 T k.k.k.k...- - - - - - ,.k.k.k.k.k.k.k.k.k.k.k.k.k.k.k.k.k.k.k.k.3.u u u u u u @.k.k.k.k.T 6 ",
"6 T k.k.k.k.~ = = = = = < k.k.k.k.k.k.k.k.k.k.k.k.k.k.k.k.k.k.k.k.k.k.a u u u u u } k.k.k.k.T 6 ",
"6 T k.k.k.k.W * * * * * 3 k.k.k.k.k.k.k.k.k.k.k.k.k.k.k.k.k.k.k.k.k.k.B y y y y y ' k.k.k.k.T 6 ",
"6 T k.k.k.k.W * * * * * 2 k.k.k.k.k.k.k.k.k.k.k.k.k.k.k.k.k.k.k.k.k.k.B y y y y y ' k.k.k.k.T 6 ",
"6 T k.k.k.k.! & & & & & ; k.k.k.k.k.k.k.k.k.k.k.k.k.k.k.k.k.k.k.k.k.k.p y y y y y } k.k.k.k.T 6 ",
"6 T k.k.k.k.) & & & & & & O.k.k.k.k.k.k.k.k.k.k.k.k.k.k.k.k.k.k.k.k.3.t t t t t t +.k.k.k.k.T 6 ",
"6 T k.k.k.k.1.& $ $ $ $ $ n k.k.k.k.k.k.k.k.k.k.k.k.k.k.k.k.k.k.k.k.` e e e e e y a.k.k.k.k.T 6 ",
"6 T k.k.k.k.k.2 $ $ $ $ $ 4 k.k.k.k.k.k.k.k.k.k.k.k.k.k.k.k.k.k.k.k.B e e e e e B k.k.k.k.k.T 6 ",
"6 T k.k.k.k.k.x # # # # # # ^ k.k.k.k.k.k.k.k.k.k.k.k.k.k.k.k.k.k.| w w w w w w T k.k.k.k.k.T 6 ",
"6 T k.k.k.k.k.X.# # # # # # , 1.k.k.k.k.k.k.k.k.k.k.k.k.k.k.k.k.u.a w w w w w w $.k.k.k.k.k.T 6 ",
"6 T k.k.k.k.k.k.5 @ @ @ @ @ @ f k.k.k.k.k.k.k.k.k.k.k.k.k.k.k.k.A w w w w w w A k.k.k.k.k.k.T 6 ",
"6 T k.k.k.k.k.k.) @ + + + + + + f e.k.k.k.k.k.k.k.k.k.k.k.k.a.S q q q q q q w @.k.k.k.k.k.k.T 6 ",
"6 T k.k.k.k.k.k.k.j + + + + + + + > / k.k.k.k.k.k.k.k.k.k. .a q q q q q q q L k.k.k.k.k.k.k.T 6 ",
"6 T k.k.k.k.k.k.k.e.- O O O O O O O + 4 Q e.k.k.k.k.u.[ Z 9 9 9 9 9 9 9 9 a a.k.k.k.k.k.k.k.T 6 ",
"6 T k.k.k.k.k.k.k.k.X.$ o o o o o o o o o + n k.k.' q 8 8 8 8 8 8 8 8 8 e *.k.k.k.k.k.k.k.k.T 6 ",
"6 T k.k.k.k.k.k.k.k.k.) # X X X X X X X X X b k.k._ 8 8 8 8 8 8 8 8 8 e @.k.k.k.k.k.k.k.k.k.T 6 ",
"6 T k.k.k.k.k.k.k.k.k.k...* X X X X X X X X b k.k._ 7 7 7 7 7 7 7 7 i $.k.k.k.k.k.k.k.k.k.k.T 6 ",
"6 T k.k.k.k.k.k.k.k.k.k.k.e.h X . . . . . . b k.k._ 7 7 7 7 7 7 7 D u.k.k.k.k.k.k.k.k.k.k.k.T 6 ",
"6 T k.k.k.k.k.k.k.k.k.k.k.k.k.) 1 . . . . . v k.k.E 7 7 7 7 7 M +.k.k.k.k.k.k.k.k.k.k.k.k.k.T 6 ",
"6 T k.k.k.k.k.k.k.k.k.k.k.k.k.k.k.) j % . . c k.k.E 6 7 r P @.k.k.k.k.k.k.k.k.k.k.k.k.k.k.k.T 6 ",
"6 P k.k.k.k.k.k.k.k.k.k.k.k.k.k.k.k.k.k.<.! ..k.k.@.} 3.k.k.k.k.k.k.k.k.k.k.k.k.k.k.k.k.k.k.P 6 ",
"6 m k.k.k.k.k.k.k.k.k.k.k.k.k.k.k.k.k.k.k.k.k.k.k.k.k.k.k.k.k.k.k.k.k.k.k.k.k.k.k.k.k.k.k.k.Z 6 ",
"6 7 3.k.k.k.k.k.k.k.k.k.k.k.k.k.k.k.k.k.k.k.k.k.k.k.k.k.k.k.k.k.k.k.k.k.k.k.k.k.k.k.k.k.k.7.7 6 ",
"  6 Z k.k.k.k.k.k.k.k.k.k.k.k.k.k.k.k.k.k.k.k.k.k.k.k.k.k.k.k.k.k.k.k.k.k.k.k.k.k.k.k.k.k.S 6   ",
"  6 6 S 7.k.k.k.k.k.k.k.k.k.k.k.k.k.k.k.k.k.k.k.k.k.k.k.k.k.k.k.k.k.k.k.k.k.k.k.k.k.k.*.Z 6 6   ",
"    6 6 7 Z P T T T T T T T T T T T T T T T T T T T T T T T T T T T T T T T T T T P m 6 6 6     ",
"        6 6 6 6 6 6 6 6 6 6 6 6 6 6 6 6 6 6 6 6 6 6 6 6 6 6 6 6 6 6 6 6 6 6 6 6 6 6 6 6         "
};
